<?xml version="1.0" encoding="UTF-8"?>
<svg width="34px" height="45px" viewBox="0 0 34 45" version="1.1" xmlns="http://www.w3.org/2000/svg" xmlns:xlink="http://www.w3.org/1999/xlink">
    <title>Group</title>
    <g id="DigiPass---NonEnroles" stroke="none" stroke-width="1" fill="none" fill-rule="evenodd">
        <g id="Artboard" transform="translate(-25.000000, -1249.000000)">
            <g id="Group" transform="translate(26.000000, 1249.000000)">
                <g id="A_MGFjZjlkZDY2YjhlM2JmObVrSk-yFrXRIKDciCFTbmEmRV-usJEO3ED_UjhYZ1FY130KDo0vGowOo-03HhEnClpeeLVIStxKP4zpCf6EfJFQrwNNel6jmKe84Y4lP2r35W6VzTgwmUNkmUOiBQuwQJvpDtMuFxTN74F6TdBqyHw=" transform="translate(0.000000, 24.496400)" stroke="#FFFFFF" stroke-width="2">
                    <path d="M13.957,18.8286 L2.082,18.8286 C0.933,18.8286 0,17.8966 0,16.7466 L0,7.3396 C0,6.1896 0.933,5.2576 2.082,5.2576 L13.957,5.2576 C15.107,5.2576 16.039,6.1896 16.039,7.3396 L16.039,16.7466 C16.039,17.8966 15.107,18.8286 13.957,18.8286 Z" id="Stroke-5"></path>
                    <path d="M10.2959,0 L5.7429,0 C4.5939,0 3.6609,0.933 3.6609,2.083 L3.6609,5.257 L12.3779,5.257 L12.3779,2.083 C12.3779,0.933 11.4459,0 10.2959,0 Z" id="Stroke-7"></path>
                    <line x1="8.0195" y1="11.0434" x2="8.0195" y2="14.3044" id="Stroke-9"></line>
                </g>
                <g id="noun_iPhone_1916421" transform="translate(7.000000, 0.000000)" fill="#FFFFFF" fill-rule="nonzero">
                    <path d="M21.6666667,0 L4.33333333,0 C1.94009942,0 0,1.94009942 0,4.33333333 C0,13.0182083 0,19.5318646 0,23.8743021 C0,24.6723787 1.09863333,24.8797447 3.2959,24.4964 C5.3779,24.8626457 4.8070583,26.8113261 5.3779,27.72432 C5.95543127,28.8510795 6.83778569,29.7284671 8.02496326,30.3564827 C11.2684346,32.0722756 8.81464753,39 9.77990224,39 C12.4214054,39 16.3836603,39 21.6666667,39 C24.0599006,39 26,37.0599006 26,34.6666667 L26,4.33333333 C26,1.94009942 24.0599006,0 21.6666667,0 Z M23.8333333,34.6666667 C23.8319602,35.8627144 22.8627144,36.8319602 21.6666667,36.8333333 C16.4365439,36.8333333 12.5139517,36.8333333 9.89889034,36.8333333 C8.66209989,36.8333333 8.25135867,34.4733556 8.66666667,29.7534 C7.77563701,29.7523771 4.66621484,28.6508031 4.33333333,25.002956 C4.21938103,23.7542217 2.16701683,24.8014181 2.16666667,24.4964 L2.16666667,4.33333333 C2.16803975,3.13728559 3.13728559,2.16803975 4.33333333,2.16666667 L6.5,2.16666667 C6.5,3.36328362 7.47004971,4.33333333 8.66666667,4.33333333 L17.3333333,4.33333333 C18.5299503,4.33333333 19.5,3.36328362 19.5,2.16666667 L21.6666667,2.16666667 C22.8627144,2.16803975 23.8319602,3.13728559 23.8333333,4.33333333 L23.8333333,34.6666667 Z M15.1666667,32.5 C15.1666667,33.696617 14.196617,34.6666667 13,34.6666667 C11.803383,34.6666667 10.8333333,33.696617 10.8333333,32.5 C10.8333333,31.303383 11.803383,30.3333333 13,30.3333333 C13.5746481,30.3333333 14.1257716,30.5615533 14.5321091,30.9678909 C14.9384467,31.3742284 15.1666667,31.9253519 15.1666667,32.5 Z" id="Shape"></path>
                </g>
            </g>
        </g>
    </g>
</svg>